<?xml version="1.0" encoding="utf-8"?>
<!-- Generator: Adobe Illustrator 26.2.0, SVG Export Plug-In . SVG Version: 6.00 Build 0)  -->
<svg version="1.1" id="Layer_1" xmlns="http://www.w3.org/2000/svg" xmlns:xlink="http://www.w3.org/1999/xlink" x="0px" y="0px"
	 viewBox="0 0 512 512" style="enable-background:new 0 0 512 512;" xml:space="preserve">
<style type="text/css">
	.st0{fill:#EE713C;}
	.st1{fill-rule:evenodd;clip-rule:evenodd;fill:#EE713C;}
</style>
<g>
	<path class="st0" d="M325.3,261.4c-1.8,1.2-3.1,2-4.3,2.9l-146.8,91.6c-6.3,4.1-7.1,7.7-2.6,13.8c6.1,8.3,12.4,16.7,18.7,25
		c3.7,4.9,8.3,5.9,13.4,3.3c51.9-26.9,103.8-53.8,155.8-80.8c4.7-2.4,6.9-2.2,10.4,2.2c23.8,31.6,48.1,62.9,72.1,94.5
		c2.6,3.5,5.1,4.3,9,2.9c10.8-4.1,21.8-7.5,32.8-11.2c6.5-2.2,13-4.5,19.5-6.9c3.5-1,5.5-4.9,4.5-8.3c-0.6-3.1-1.8-5.9-3.7-8.3
		C438.9,297.2,373.6,212.7,308.2,128c-6.7-8.8-14-9.6-22.4-2.4C228,175.7,170.4,225.8,112.6,276.1c-4.5,3.9-5.3,7.9-1.8,12.6
		c6.5,9,13.2,17.9,20.2,26.9c3.5,4.5,7.5,4.7,12.2,1.4c4.5-3.3,8.8-6.5,13.2-9.6l125.4-92.2c5.3-3.9,5.3-3.9,9.2,1.2l26.3,34.2
		C319.6,253.9,322.3,257.3,325.3,261.4z"/>
	<path class="st1" d="M199.1,501.7c10.4-3.5,20.8-6.7,31.2-10c7.9-2.6,15.9-5.3,24-7.9c23.8-8.1,47.6-16.3,71.5-24.6
		c16.7-5.7,33.4-11.2,50.3-16.9c3.1-1,5.9-2.4,9.6-3.9c-12.6-16.7-24.8-32.8-37.3-48.9c-7.1,2.9-13.6,5.7-20.4,8.6
		c-16.3,6.9-32.8,14-49.1,21c-13.4,5.7-26.7,11.2-39.9,16.9c-13.8,5.7-27.7,11.4-41.3,17.3c-6.5,2.9-6.3,3.1-10.8-2.6
		C142.1,390.7,97.3,330.8,52.7,271c-2.4-3.5-2.6-5.3,0.6-8.6c30.9-31.4,61.9-62.7,92.6-94.3c32.4-33,64.7-66,97.1-99
		c7.1-7.3,7.7-16.7,1.8-24.6c-7.7-10-15.5-20.2-23.2-30.1c-5.9-7.7-14-7.9-20.4-0.4c-27.9,33.2-55.4,66.2-83.1,99L7.3,245.1
		c-4.7,5.5-4.7,9.6,0,15.9C65.1,338.8,123.1,416.6,181,494.3c3.5,4.7,6.5,9.4,10.6,9.2C194.2,503.5,196.6,502.7,199.1,501.7z"/>
	<path class="st1" d="M325.3,261.4c-3.1-4.1-5.7-7.5-8.3-11.2L290.7,216c-3.9-4.9-3.9-5.1-9.2-1.2l-125.2,92.4
		c-4.5,3.3-8.8,6.5-13.2,9.6c-4.5,3.3-8.8,3.1-12.2-1.4c-6.9-8.8-13.6-17.7-20.2-26.9c-3.3-4.7-2.6-8.8,1.8-12.6
		c57.8-50.3,115.6-100.4,173.5-150.5c8.1-7.1,15.7-6.1,22.4,2.4c65.4,84.5,130.5,169.2,195.9,253.9c1.8,2.4,3.1,5.3,3.7,8.3
		c1,3.5-1,7.3-4.5,8.3c-6.5,2.4-13,4.7-19.5,6.9c-11,3.7-21.8,7.3-32.8,11.2c-4.1,1.4-6.3,0.8-9-2.9c-24-31.6-48.3-62.9-72.1-94.5
		c-3.3-4.5-5.7-4.7-10.4-2.2c-51.9,27.1-103.8,54-155.8,80.8c-5.1,2.6-10,1.4-13.4-3.3c-6.3-8.3-12.4-16.5-18.7-25
		c-4.5-6.1-3.7-9.8,2.6-13.8l146.8-91.6C322.3,263.4,323.7,262.6,325.3,261.4z"/>
</g>
</svg>
